<svg fill="none" height="48" viewBox="0 0 200 60" xmlns="http://www.w3.org/2000/svg">
  <!-- Background shapes (kept the same as original) -->
  <path d="m5.03741 15.4637c.7506-2.8008 3.62961-5.67985 6.43049-6.43044l17.4617-4.67957c2.8009-.7506 4.4629.91146 3.7123 3.71231l-4.6795 17.4617c-.7506 2.8009-3.6297 5.6799-6.4305 6.4305l-17.46175 4.6796c-2.80085.7505-4.462904-.9115-3.712306-3.7124z" fill="#6938ef" opacity=".7"/>
  <path d="m12.0355 22.4642c.7506-2.8008 3.6296-5.6799 6.4304-6.4305l17.4617-4.6795c2.8009-.7506 4.4629.9114 3.7123 3.7123l-4.6795 17.4617c-.7506 2.8009-3.6296 5.6799-6.4305 6.4305l-17.4617 4.6795c-2.80085.7506-4.46291-.9114-3.71231-3.7123z" fill="#6938ef" opacity=".7"/>
  
  <!-- Text: Using text element instead of paths -->
  <text x="60" y="45" font-family="Arial, sans-serif" font-size="25" font-weight="bold" fill="#0A0D12">LEARNIFY</text>
</svg>